<?xml version="1.0" encoding="iso-8859-1"?>
<!-- Generator: Adobe Illustrator 19.0.0, SVG Export Plug-In . SVG Version: 6.00 Build 0)  -->
<svg version="1.1" id="Capa_1" xmlns="http://www.w3.org/2000/svg" xmlns:xlink="http://www.w3.org/1999/xlink" x="0px" y="0px"
	 viewBox="0 0 490.667 490.667" style="enable-background:new 0 0 490.667 490.667;" xml:space="preserve">
	<style> #Capa_1 { fill: #008080; }</style>
<g>
	<g>
		<path d="M437.333,149.333h-384C23.915,149.333,0,173.269,0,202.667V288c0,29.397,23.915,53.333,53.333,53.333h384
			c29.419,0,53.333-23.936,53.333-53.333v-85.333C490.667,173.269,466.752,149.333,437.333,149.333z M469.333,288
			c0,17.643-14.357,32-32,32h-384c-17.643,0-32-14.357-32-32v-85.333c0-17.643,14.357-32,32-32h384c17.643,0,32,14.357,32,32V288z"
			/>
	</g>
</g>
<g>
	<g>
		<path d="M245.333,42.667c-5.888,0-10.667,4.779-10.667,10.667V160c0,5.888,4.779,10.667,10.667,10.667S256,165.888,256,160V53.333
			C256,47.445,251.221,42.667,245.333,42.667z"/>
	</g>
</g>
<g>
	<g>
		<path d="M245.333,320c-5.888,0-10.667,4.779-10.667,10.667v106.667c0,5.888,4.779,10.667,10.667,10.667S256,443.221,256,437.333
			V330.667C256,324.779,251.221,320,245.333,320z"/>
	</g>
</g>
<g>
	<g>
		<path d="M351.061,157.163C331.52,86.528,291.029,42.667,245.333,42.667s-86.187,43.861-105.728,114.496
			c-1.579,5.675,1.749,11.541,7.424,13.12c5.739,1.557,11.584-1.771,13.12-7.445C176.768,102.805,210.219,64,245.333,64
			s68.565,38.805,85.205,98.837c1.28,4.736,5.568,7.829,10.261,7.829c0.939,0,1.877-0.128,2.837-0.384
			C349.312,168.725,352.64,162.837,351.061,157.163z"/>
	</g>
</g>
<g>
	<g>
		<path d="M343.637,320.384c-5.739-1.536-11.584,1.771-13.12,7.445c-16.619,60.032-50.069,98.837-85.184,98.837
			s-68.565-38.805-85.184-98.837c-1.536-5.675-7.339-8.981-13.12-7.445c-5.675,1.557-9.003,7.445-7.424,13.12
			C159.147,404.139,199.637,448,245.333,448s86.187-43.861,105.728-114.496C352.64,327.829,349.312,321.963,343.637,320.384z"/>
	</g>
</g>
<g>
	<g>
		<path d="M426.688,155.243c-34.56-69.44-104.043-112.576-181.355-112.576S98.539,85.803,63.979,155.264
			c-2.624,5.269-0.469,11.669,4.8,14.293c5.227,2.624,11.669,0.469,14.293-4.8C114.005,102.613,176.171,64,245.333,64
			s131.328,38.613,162.283,100.757c1.856,3.733,5.611,5.909,9.536,5.909c1.6,0,3.221-0.363,4.736-1.131
			C427.157,166.912,429.312,160.512,426.688,155.243z"/>
	</g>
</g>
<g>
	<g>
		<path d="M421.888,321.109c-5.248-2.603-11.669-0.491-14.293,4.8c-30.933,62.144-93.099,100.757-162.261,100.757
			S114.005,388.053,83.072,325.931c-2.624-5.291-9.067-7.403-14.293-4.8c-5.269,2.624-7.424,9.024-4.8,14.293
			C98.539,404.864,168.021,448,245.333,448s146.795-43.136,181.355-112.597C429.312,330.133,427.157,323.733,421.888,321.109z"/>
	</g>
</g>
<g>
	<g>
		<path d="M290.56,192.32c-5.803-1.429-11.52,2.027-12.928,7.765l-12.437,49.792l-9.749-29.248c-2.901-8.704-17.323-8.704-20.245,0
			l-9.749,29.248l-12.437-49.792c-1.408-5.739-7.296-9.216-12.928-7.765c-5.739,1.429-9.195,7.232-7.765,12.928l21.333,85.333
			c1.152,4.587,5.205,7.893,9.941,8.064c5.568,0.235,9.045-2.795,10.539-7.275l11.2-33.643l11.2,33.643
			c1.472,4.373,5.547,7.296,10.133,7.296c0.128,0,0.277,0,0.384-0.021c4.736-0.171,8.789-3.456,9.941-8.064l21.333-85.333
			C299.755,199.531,296.299,193.749,290.56,192.32z"/>
	</g>
</g>
<g>
	<g>
		<path d="M162.581,192.32c-5.803-1.429-11.499,2.027-12.949,7.765l-12.437,49.792l-9.749-29.248
			c-2.901-8.704-17.323-8.704-20.245,0l-9.749,29.248l-12.437-49.792c-1.429-5.739-7.296-9.216-12.928-7.765
			c-5.739,1.429-9.195,7.232-7.765,12.928l21.333,85.333c1.152,4.587,5.205,7.893,9.941,8.064c5.653,0.235,9.045-2.795,10.539-7.275
			l11.2-33.643l11.2,33.643c1.472,4.373,5.547,7.296,10.133,7.296c0.128,0,0.277,0,0.405-0.021c4.736-0.171,8.789-3.456,9.941-8.064
			l21.333-85.333C171.776,199.531,168.32,193.749,162.581,192.32z"/>
	</g>
</g>
<g>
	<g>
		<path d="M418.56,192.32c-5.824-1.429-11.52,2.027-12.928,7.765l-12.437,49.792l-9.749-29.248c-2.901-8.704-17.323-8.704-20.245,0
			l-9.749,29.248l-12.437-49.792c-1.408-5.739-7.296-9.216-12.928-7.765c-5.717,1.429-9.173,7.211-7.765,12.928l21.333,85.333
			c1.152,4.587,5.205,7.893,9.941,8.064c5.461,0.235,9.045-2.795,10.539-7.275l11.2-33.643l11.2,33.643
			c1.472,4.373,5.547,7.296,10.133,7.296c0.128,0,0.277,0,0.384-0.021c4.736-0.171,8.789-3.456,9.941-8.064l21.333-85.333
			C427.755,199.531,424.299,193.749,418.56,192.32z"/>
	</g>
</g>
<g>
</g>
<g>
</g>
<g>
</g>
<g>
</g>
<g>
</g>
<g>
</g>
<g>
</g>
<g>
</g>
<g>
</g>
<g>
</g>
<g>
</g>
<g>
</g>
<g>
</g>
<g>
</g>
<g>
</g>
</svg>
