<svg xmlns="http://www.w3.org/2000/svg" viewBox="0 0 512 512" width="512" height="512">
    <g transform="translate(0,512) scale(0.1,-0.1)">
        <path d="M2495 4786 c-41 -18 -83 -69 -90 -109 -4 -18 -5 -118 -3 -224 3 -210 5 -218 72 -267 39 -29 133 -29 172 0 68 51 69 53 69 294 0 205 -1 220 -21 246 -11 15 -32 37 -46 47 -33 25 -113 32 -153 13z" />
        <path d="M1025 4176 c-41 -18 -83 -69 -91 -111 -14 -79 -2 -101 144 -248 76 -76 150 -145 166 -154 54 -28 131 -17 180 26 47 41 62 131 33 187 -23 42 -277 291 -310 304 -38 14 -85 12 -122 -4z" />
        <path d="M3970 4179 c-31 -12 -286 -264 -307 -303 -29 -56 -14 -146 33 -187 49 -43 126 -54 180 -26 16 9 90 78 166 154 146 147 158 169 144 248 -17 91 -127 149 -216 114z" />
        <path d="M2375 3989 c-319 -44 -601 -184 -830 -414 -205 -204 -336 -443 -396 -725 -32 -149 -33 -430 -1 -572 65 -297 189 -526 397 -733 207 -208 437 -332 733 -397 131 -29 414 -31 545 -5 294 59 543 192 752 402 207 207 331 436 397 733 31 139 31 423 0 564 -65 296 -189 526 -397 733 -208 209 -461 344 -747 400 -99 20 -355 28 -453 14z m-474 -572 c-41 -119 -55 -216 -55 -377 0 -113 4 -178 18 -240 91 -424 399 -768 804 -899 138 -45 214 -56 377 -56 155 1 256 16 372 56 31 10 58 18 59 16 9 -9 -145 -173 -215 -229 -88 -70 -237 -153 -340 -187 -445 -151 -941 -7 -1233 359 -189 235 -279 556 -238 845 29 198 117 406 236 554 57 71 222 226 231 217 2 -1 -6 -28 -16 -59z" />
        <path d="M415 2706 c-97 -43 -124 -171 -54 -251 45 -51 78 -57 301 -53 215 3 223 5 272 72 29 39 29 133 0 172 -50 67 -55 69 -282 71 -157 2 -214 0 -237 -11z" />
        <path d="M4255 2706 c-97 -43 -124 -171 -54 -251 45 -51 78 -57 301 -53 215 3 223 5 272 72 29 39 29 133 0 172 -50 67 -55 69 -282 71 -157 2 -214 0 -237 -11z" />
        <path d="M1285 1470 c-49 -11 -64 -23 -207 -167 -146 -148 -158 -169 -143 -250 9 -49 69 -109 118 -118 81 -15 102 -3 250 143 76 76 145 150 154 166 20 39 19 110 -4 148 -35 59 -104 92 -168 78z" />
        <path d="M3771 1469 c-97 -21 -154 -138 -108 -225 9 -16 78 -90 154 -166 148 -146 169 -158 250 -143 49 9 109 69 118 118 15 81 3 102 -143 250 -76 76 -146 143 -157 149 -32 18 -78 25 -114 17z" />
        <path d="M2495 946 c-41 -18 -83 -69 -90 -109 -4 -18 -5 -118 -3 -224 3 -210 5 -218 72 -267 39 -29 133 -29 172 0 68 51 69 53 69 294 0 205 -1 220 -21 246 -11 15 -32 37 -46 47 -33 25 -113 32 -153 13z" />
    </g>
</svg>