<svg xmlns="http://www.w3.org/2000/svg" viewBox="0 0 2048 2048">
<path d="M1491.2 671.096c-1.01102,-113.726 -43.7811,-211.559 -115.667,-281.971 -72.2859,-70.8024 -173.836,-113.719 -291.734,-116.987l-0.437008 0 -349.929 0.211417c-63.7796,-1.28976 -128.137,7.95945 -187.36,30.0591 -54.2185,20.2323 -104.1,51.1819 -145.313,94.5934 -24.1996,25.4929 -52.3985,60.5209 -75.4182,107.218 -23.0103,46.6772 -40.8095,104.93 -44.1874,176.798l0 0.750001c-0.0354331,67.4528 0.270473,135.025 0.576378,202.641 0.585827,129.838 1.17402,259.846 -0.651969,389.175l-0.0625985 0.187795c0,80.8642 6.54922,150.678 23.3256,211.454 17.0173,61.6512 44.4933,113.688 86.1721,158.039 41.4461,44.1851 92.7839,77.4579 153.556,99.6639 60.2056,21.998 129.521,33.0733 207.49,33.0733 208.608,0 31.0146,-0.0507874 270.637,-0.100394 54.6721,-0.011811 -85.1989,0.0236221 270.638,0.0236221l0.125197 -0.0625985c69.9603,-0.581103 134.562,-12.4429 192.184,-34.9429 57.9898,-22.6441 108.951,-56.0469 151.257,-99.5599 42.2114,-43.4575 74.6481,-96.0225 96.6851,-156.03 21.8669,-59.5465 33.4949,-126.527 34.265,-199.292l0 -0.312992c-0.0011811,-0.162992 -0.675591,-56.9882 -0.750001,-79.2367l0 -0.0625985c-0.222047,-55.4705 -0.433465,-103.258 -7.49764,-146.53 -7.29213,-44.6681 -21.7406,-84.1619 -50.4969,-121.325 -32.7449,-42.274 -74.1792,-66.9225 -117.561,-81.2847 -35.6233,-11.7933 -72.5067,-16.5484 -106.801,-18.4819 4.39134,-22.8414 7.32756,-46.6666 8.76379,-71.3941 1.78228,-30.6992 1.20827,-62.8524 -1.80945,-96.3131zm-729.853 -100.493l296.416 -0.380315 0.250394 0c65.0056,1.05236 108.4,39.8433 127.602,88.5308 7.28977,18.4854 11.0232,38.5063 11.0492,58.4552 0.0259843,20.0646 -3.68977,39.978 -11.2984,58.1197 -19.0193,45.3544 -61.5166,80.0753 -129.56,80.0753l0 -0.0625985 -298.546 0.129921 -0.250394 0c-67.0489,-1.06417 -109.741,-38.5843 -128.204,-86.1603 -7.12205,-18.3496 -10.5484,-38.2075 -10.2945,-58.0004 0.253937,-19.8567 4.18347,-39.6343 11.7697,-57.7559 19.7268,-47.1166 63.5115,-83.5725 131.067,-82.9512zm-35.713 579.67l592.907 0c39.3662,0 75.0036,15.9496 100.797,41.739 25.7941,25.7894 41.7461,61.4221 41.7461,100.782 0,39.2882 -15.991,74.9032 -41.824,100.722 -25.8059,25.7894 -61.4268,41.7449 -100.719,41.7449l-592.907 0c-39.3142,0 -74.9292,-15.9484 -100.726,-41.7307 -25.8355,-25.8201 -41.817,-61.4422 -41.817,-100.736 0,-39.3603 15.9543,-74.9894 41.7485,-100.778 25.7953,-25.7918 61.4327,-41.7437 100.794,-41.7437z"/>
</svg>