<?xml version="1.0" encoding="iso-8859-1"?>
<!-- Generator: Adobe Illustrator 16.0.0, SVG Export Plug-In . SVG Version: 6.00 Build 0)  -->
<!DOCTYPE svg PUBLIC "-//W3C//DTD SVG 1.1//EN" "http://www.w3.org/Graphics/SVG/1.1/DTD/svg11.dtd">
<svg version="1.1" id="Capa_1" xmlns="http://www.w3.org/2000/svg" xmlns:xlink="http://www.w3.org/1999/xlink" x="0px" y="0px"
	 width="32px" height="32px" viewBox="0 0 32 32" style="enable-background:new 0 0 32 32;" xml:space="preserve">
<g>
	<g>
		<path d="M32,13.003l-3.445-0.928c-0.875-2.724-3.426-4.697-6.439-4.697c-3.455,0-6.3,2.593-6.708,5.938l-0.002,0.002
			c-1.636-0.235-3.172-2.794-4.746-7.263c-3.512,4.176-3.298,8.804-2.241,10.538C6.181,16.839,1.877,15.531,0,14.507
			c3.273,7.317,7.78,9.155,12.364,10.137c1.554,0.825,3.321,1.302,5.205,1.302c6.123,0,11.264-3.207,11.308-9.318
			c0.052-0.162,0.101-0.318,0.142-0.461C29.093,15.901,32,13.003,32,13.003L32,13.003z M26.613,12.681
			c0,1.026-0.831,1.857-1.856,1.857c-1.024,0-1.856-0.831-1.856-1.857c0-1.025,0.832-1.856,1.856-1.856
			C25.782,10.825,26.613,11.656,26.613,12.681z"/>
		<path d="M24.885,13.609c0.514,0,0.928-0.416,0.928-0.928c0-0.512-0.416-0.928-0.928-0.928h-0.001
			c0.04,0.072,0.067,0.152,0.067,0.24c0,0.284-0.23,0.515-0.516,0.515c-0.164,0-0.304-0.083-0.398-0.203
			c-0.051,0.116-0.081,0.243-0.081,0.376C23.957,13.194,24.372,13.609,24.885,13.609z"/>
	</g>
</g>
<g>
</g>
<g>
</g>
<g>
</g>
<g>
</g>
<g>
</g>
<g>
</g>
<g>
</g>
<g>
</g>
<g>
</g>
<g>
</g>
<g>
</g>
<g>
</g>
<g>
</g>
<g>
</g>
<g>
</g>
</svg>
