<?xml version="1.0" encoding="iso-8859-1"?>
<!-- Generator: Adobe Illustrator 19.0.0, SVG Export Plug-In . SVG Version: 6.00 Build 0)  -->
<svg version="1.1" id="Capa_1" xmlns="http://www.w3.org/2000/svg" xmlns:xlink="http://www.w3.org/1999/xlink" x="0px" y="0px"
	 viewBox="0 0 512 512" style="enable-background:new 0 0 512 512;" xml:space="preserve">
<g>
	<g>
		<path d="M402.816,355.424l-69.952-13.984c-7.456-1.472-12.864-8.064-12.864-15.648v-16.064c4.608-6.4,8.896-14.976,13.408-23.904
			c3.424-6.752,8.576-16.96,10.88-19.328c13.568-13.28,28.032-29.728,32.448-51.232c4.032-19.456,0.032-29.568-4.64-37.568
			c0-15.648,0-44.32-5.44-64.928c-0.576-24.96-5.12-39.04-16.64-51.52c-8.128-8.8-20.096-10.816-29.696-12.448
			c-3.808-0.64-9.024-1.504-10.848-2.528c-16.576-9.216-33.44-13.76-54.08-14.272c-42.24,1.6-94.08,28.384-111.424,76.544
			c-5.28,14.624-4.768,38.624-4.384,57.92l-0.448,11.232c-4.064,8-8.064,18.112-4.032,37.536
			c4.416,21.568,18.88,38.016,32.384,51.232c2.336,2.432,7.552,12.672,11.008,19.424c4.544,8.896,8.896,17.44,13.504,23.84v16.064
			c0,7.584-5.408,14.176-12.832,15.68l-69.984,13.984C64.448,364.416,32,404,32,449.6V480c0,17.664,14.368,32,32,32h384
			c17.664,0,32-14.336,32-32v-30.4C480,404,447.52,364.416,402.816,355.424z"/>
	</g>
</g>
<g>
	<g>
		<path d="M112,0H48c-8.832,0-16,7.168-16,16v96c0,8.832,7.168,16,16,16c8.832,0,16-7.168,16-16V32h48c8.832,0,16-7.168,16-16
			C128,7.168,120.832,0,112,0z"/>
	</g>
</g>
<g>
	<g>
		<path d="M112,288H64v-80c0-8.832-7.168-16-16-16c-8.832,0-16,7.168-16,16v96c0,8.832,7.168,16,16,16h64c8.832,0,16-7.168,16-16
			C128,295.168,120.832,288,112,288z"/>
	</g>
</g>
<g>
	<g>
		<path d="M464,0h-64c-8.832,0-16,7.168-16,16s7.168,16,16,16h48v80c0,8.832,7.168,16,16,16c8.832,0,16-7.168,16-16V16
			C480,7.168,472.832,0,464,0z"/>
	</g>
</g>
<g>
	<g>
		<path d="M464,192c-8.832,0-16,7.168-16,16v80h-48c-8.832,0-16,7.168-16,16c0,8.832,7.168,16,16,16h64c8.832,0,16-7.168,16-16v-96
			C480,199.168,472.832,192,464,192z"/>
	</g>
</g>
<g>
</g>
<g>
</g>
<g>
</g>
<g>
</g>
<g>
</g>
<g>
</g>
<g>
</g>
<g>
</g>
<g>
</g>
<g>
</g>
<g>
</g>
<g>
</g>
<g>
</g>
<g>
</g>
<g>
</g>
</svg>
