<svg width="335" height="530" xmlns="http://www.w3.org/2000/svg">
 <g>
  <title>iAKIN</title>
  <rect fill="#fff" stroke="#000" opacity="undefined" x="10" y="10" width="50" height="50" id="svg_1"/>
  <rect fill="#fff" stroke="#000" opacity="undefined" x="76" y="10" width="50" height="50" id="svg_2"/>
  <rect fill="#000" stroke="#fff" opacity="undefined" x="142" y="10" width="50" height="50" id="svg_3"/>
  <rect fill="#fff" stroke="#000" opacity="undefined" x="208" y="10" width="50" height="50" id="svg_4"/>
  <rect fill="#fff" stroke="#000" opacity="undefined" x="274" y="10" width="50" height="50" id="svg_5"/>
  <rect fill="#fff" stroke="#000" opacity="undefined" x="10" y="76" width="50" height="50" id="svg_6"/>
  <rect fill="#fff" stroke="#000" opacity="undefined" x="76" y="76" width="50" height="50" id="svg_7"/>
  <rect fill="#fff" stroke="#000" opacity="undefined" x="142" y="76" width="50" height="50" id="svg_8"/>
  <rect fill="#fff" stroke="#000" opacity="undefined" x="208" y="76" width="50" height="50" id="svg_9"/>
  <rect fill="#fff" stroke="#000" opacity="undefined" x="274" y="76" width="50" height="50" id="svg_10"/>
  <rect fill="#fff" stroke="#000" opacity="undefined" x="10" y="144" width="50" height="50" id="svg_11"/>
  <rect fill="#000" stroke="#fff" opacity="undefined" x="76" y="144" width="50" height="50" id="svg_12"/>
  <rect fill="#000" stroke="#fff" opacity="undefined" x="142" y="144" width="50" height="50" id="svg_13"/>
  <rect fill="#000" stroke="#fff" opacity="undefined" x="208" y="144" width="50" height="50" id="svg_14"/>
  <rect fill="#fff" stroke="#000" opacity="undefined" x="274" y="144" width="50" height="50" id="svg_15"/>
  <rect fill="#fff" stroke="#000" opacity="undefined" x="10" y="210" width="50" height="50" id="svg_16"/>
  <rect fill="#fff" stroke="#000" opacity="undefined" x="76" y="210" width="50" height="50" id="svg_17"/>
  <rect fill="#000" stroke="#fff" opacity="undefined" x="142" y="210" width="50" height="50" id="svg_18"/>
  <rect fill="#fff" stroke="#000" opacity="undefined" x="208" y="210" width="50" height="50" id="svg_19"/>
  <rect fill="#fff" stroke="#000" opacity="undefined" x="274" y="210" width="50" height="50" id="svg_20"/>
  <rect fill="#fff" stroke="#000" opacity="undefined" x="10" y="276" width="50" height="50" id="svg_21"/>
  <rect fill="#fff" stroke="#000" opacity="undefined" x="76" y="276" width="50" height="50" id="svg_22"/>
  <rect fill="#000" stroke="#fff" opacity="undefined" x="142" y="276" width="50" height="50" id="svg_23"/>
  <rect fill="#fff" stroke="#000" opacity="undefined" x="208" y="276" width="50" height="50" id="svg_24"/>
  <rect fill="#fff" stroke="#000" opacity="undefined" x="274" y="276" width="50" height="50" id="svg_25"/>
  <rect fill="#fff" stroke="#000" opacity="undefined" x="10" y="340" width="50" height="50" id="svg_26"/>
  <rect fill="#fff" stroke="#000" opacity="undefined" x="76" y="340" width="50" height="50" id="svg_27"/>
  <rect fill="#000" stroke="#fff" opacity="undefined" x="142" y="340" width="50" height="50" id="svg_28"/>
  <rect fill="#fff" stroke="#000" opacity="undefined" x="208" y="340" width="50" height="50" id="svg_29"/>
  <rect fill="#fff" stroke="#000" opacity="undefined" x="274" y="340" width="50" height="50" id="svg_30"/>
  <rect fill="#fff" stroke="#000" opacity="undefined" x="10" y="406" width="50" height="50" id="svg_31"/>
  <rect fill="#fff" stroke="#000" opacity="undefined" x="76" y="406" width="50" height="50" id="svg_32"/>
  <rect fill="#000" stroke="#fff" opacity="undefined" x="142" y="406" width="50" height="50" id="svg_33"/>
  <rect fill="#fff" stroke="#000" opacity="undefined" x="208" y="406" width="50" height="50" id="svg_34"/>
  <rect fill="#fff" stroke="#000" opacity="undefined" x="274" y="406" width="50" height="50" id="svg_35"/>
  <rect fill="#fff" stroke="#000" opacity="undefined" x="10" y="470" width="50" height="50" id="svg_36"/>
  <rect fill="#000" stroke="#fff" opacity="undefined" x="76" y="470" width="50" height="50" id="svg_37"/>
  <rect fill="#000" stroke="#fff" opacity="undefined" x="142" y="470" width="50" height="50" id="svg_38"/>
  <rect fill="#000" stroke="#fff" opacity="undefined" x="208" y="470" width="50" height="50" id="svg_39"/>
  <rect fill="#fff" stroke="#000" opacity="undefined" x="274" y="470" width="50" height="50" id="svg_40"/>
 </g>
</svg>