<?xml version="1.0" encoding="iso-8859-1"?>
<!-- Generator: Adobe Illustrator 19.0.0, SVG Export Plug-In . SVG Version: 6.00 Build 0)  -->
<svg version="1.1" id="Capa_1" xmlns="http://www.w3.org/2000/svg" xmlns:xlink="http://www.w3.org/1999/xlink" x="0px" y="0px"
	 viewBox="0 0 512 512" style="enable-background:new 0 0 512 512;" xml:space="preserve">
<g>
	<g>
		<path d="M497,301h-76v-75c0-8.291-6.709-15-15-15h-90c-8.291,0-15,6.709-15,15c0,66.242,0,113.152,0,165h-60v-75
			c0-8.291-6.709-15-15-15h-90c-8.291,0-15,6.709-15,15v75H45c-8.291,0-15,6.709-15,15v91c0,8.291,6.709,15,15,15
			c97.477,0,354.906,0,452,0c8.291,0,15-6.709,15-15c0-65.135,0-115.865,0-181C512,307.709,505.291,301,497,301z"/>
	</g>
</g>
<g>
	<g>
		<path d="M286,0C198.621,0,119.733,0,15,0C6.709,0,0,6.709,0,15c0,65.135,0,115.865,0,181c0,8.291,6.709,15,15,15h91
			c8.291,0,15-6.709,15-15v-75c51.883,0,98.807,0,165,0c8.291,0,15-6.709,15-15V15C301,6.709,294.291,0,286,0z"/>
	</g>
</g>
<g>
</g>
<g>
</g>
<g>
</g>
<g>
</g>
<g>
</g>
<g>
</g>
<g>
</g>
<g>
</g>
<g>
</g>
<g>
</g>
<g>
</g>
<g>
</g>
<g>
</g>
<g>
</g>
<g>
</g>
</svg>
